<svg width="255" height="62" viewBox="0 0 255 62" fill="none" xmlns="http://www.w3.org/2000/svg">
<rect x="0.5" width="254" height="62" fill="url(#paint0_linear_61_1516)"/>
<path d="M9.49999 7.50001L251.5 4.00001L244 56.161L3.59048 56.161L9.49999 7.50001Z" fill="#F5E401"/>
<path d="M50.9961 35.2454H42.166L42.1429 32.431H50.973L50.9961 35.2454ZM52.1904 28.9292H40.997L41.1005 41.5401H38.3075L38.1927 27.5435C38.1911 27.3501 38.2254 27.1675 38.2956 26.9956C38.3658 26.8238 38.4613 26.6734 38.5819 26.5445C38.7098 26.4156 38.8594 26.3153 39.0306 26.2437C39.2019 26.1721 39.3878 26.1363 39.5884 26.1363H52.1675L52.1904 28.9292ZM66.5165 37.6193C66.5205 38.0991 66.4632 38.5324 66.3446 38.9191C66.226 39.2986 66.0676 39.6352 65.8695 39.9288C65.6713 40.2153 65.4406 40.4623 65.1773 40.67C64.914 40.8705 64.636 41.0352 64.3435 41.1641C64.0581 41.293 63.7652 41.3897 63.465 41.4541C63.1718 41.5114 62.8928 41.5401 62.6278 41.5401H57.5897C57.203 41.5401 56.7799 41.472 56.3205 41.336C55.861 41.1999 55.4331 40.9779 55.0367 40.67C54.6474 40.3549 54.3182 39.9503 54.0492 39.4562C53.7873 38.9549 53.6533 38.3426 53.6474 37.6193L53.6164 33.8382C53.6105 33.1221 53.7345 32.5169 53.9882 32.0228C54.2491 31.5215 54.5716 31.1169 54.9558 30.809C55.3471 30.4939 55.7713 30.2683 56.2286 30.1323C56.6858 29.9962 57.1077 29.9282 57.4945 29.9282H62.5326C63.2487 29.9282 63.8585 30.0571 64.3619 30.3149C64.8653 30.5727 65.2726 30.8985 65.5838 31.2924C65.8949 31.6791 66.1204 32.1016 66.2602 32.5599C66.4072 33.0182 66.4823 33.4443 66.4855 33.8382L66.5165 37.6193ZM63.6927 33.8597C63.6896 33.473 63.5905 33.1865 63.3956 33.0003C63.2008 32.8141 62.9207 32.721 62.5555 32.721H57.5389C57.1665 32.721 56.8844 32.8177 56.6926 33.0111C56.5008 33.1973 56.4064 33.473 56.4094 33.8382L56.4404 37.6193C56.4434 37.9845 56.5423 38.2638 56.7373 38.4572C56.9322 38.6505 57.2159 38.7472 57.5883 38.7472H62.6049C62.9845 38.7472 63.2665 38.6505 63.4511 38.4572C63.6358 38.2638 63.7266 37.9845 63.7236 37.6193L63.6927 33.8597ZM74.036 41.5401H72.7899C72.3889 41.5401 71.9586 41.472 71.4992 41.336C71.0469 41.1999 70.6225 40.9779 70.2261 40.67C69.8297 40.3549 69.5005 39.9503 69.2386 39.4562C68.9767 38.9549 68.8428 38.3426 68.8369 37.6193L68.7335 25.0191H71.5265L71.6298 37.6193C71.6326 37.963 71.7423 38.2388 71.9589 38.4464C72.1754 38.6469 72.4447 38.7472 72.767 38.7472H74.0131L74.036 41.5401ZM80.9325 41.5401H79.6864C79.2854 41.5401 78.8551 41.472 78.3957 41.336C77.9434 41.1999 77.519 40.9779 77.1226 40.67C76.7262 40.3549 76.397 39.9503 76.1351 39.4562C75.8732 38.9549 75.7393 38.3426 75.7333 37.6193L75.63 25.0191H78.4229L78.5263 37.6193C78.5291 37.963 78.6388 38.2388 78.8554 38.4464C79.0718 38.6469 79.3412 38.7472 79.6635 38.7472H80.9096L80.9325 41.5401ZM95.3271 37.6193C95.331 38.0991 95.2737 38.5324 95.1551 38.9191C95.0365 39.2986 94.8781 39.6352 94.68 39.9288C94.4818 40.2153 94.2511 40.4623 93.9879 40.67C93.7245 40.8705 93.4466 41.0352 93.154 41.1641C92.8686 41.293 92.5758 41.3897 92.2755 41.4541C91.9824 41.5114 91.7033 41.5401 91.4384 41.5401H86.4003C86.0135 41.5401 85.5905 41.472 85.131 41.336C84.6716 41.1999 84.2436 40.9779 83.8472 40.67C83.4579 40.3549 83.1288 39.9503 82.8597 39.4562C82.5978 38.9549 82.4639 38.3426 82.4579 37.6193L82.4269 33.8382C82.4211 33.1221 82.545 32.5169 82.7988 32.0228C83.0596 31.5215 83.3821 31.1169 83.7663 30.809C84.1576 30.4939 84.5819 30.2683 85.0391 30.1323C85.4963 29.9962 85.9183 29.9282 86.305 29.9282H91.3431C92.0592 29.9282 92.669 30.0571 93.1724 30.3149C93.6759 30.5727 94.0832 30.8985 94.3943 31.2924C94.7054 31.6791 94.9309 32.1016 95.0707 32.5599C95.2177 33.0182 95.2928 33.4443 95.2961 33.8382L95.3271 37.6193ZM92.5033 33.8597C92.5001 33.473 92.4011 33.1865 92.2062 33.0003C92.0113 32.8141 91.7312 32.721 91.366 32.721H86.3494C85.977 32.721 85.6949 32.8177 85.5032 33.0111C85.3113 33.1973 85.2169 33.473 85.2199 33.8382L85.2509 37.6193C85.2539 37.9845 85.3529 38.2638 85.5478 38.4572C85.7428 38.6505 86.0264 38.7472 86.3988 38.7472H91.4154C91.795 38.7472 92.0771 38.6505 92.2617 38.4572C92.4463 38.2638 92.5371 37.9845 92.5341 37.6193L92.5033 33.8597ZM116.77 29.9282C116.334 30.9236 115.862 31.9047 115.355 32.8714C114.847 33.831 114.314 34.7405 113.755 35.5998C113.203 36.4592 112.637 37.2541 112.056 37.9845C111.474 38.7078 110.896 39.3344 110.32 39.8644C109.751 40.3871 109.193 40.7989 108.644 41.0997C108.102 41.3933 107.587 41.5401 107.1 41.5401C106.9 41.5401 106.713 41.5043 106.541 41.4327C106.369 41.361 106.217 41.2644 106.087 41.1426C105.957 41.0137 105.856 40.8633 105.783 40.6915C105.71 40.5196 105.673 40.3334 105.671 40.1329L105.628 34.9231L100.136 41.1211C99.994 41.2644 99.8374 41.3718 99.6661 41.4434C99.5019 41.5079 99.3303 41.5401 99.1512 41.5401C98.9579 41.5401 98.775 41.5043 98.6025 41.4327C98.4372 41.361 98.2896 41.2644 98.1597 41.1426C98.0297 41.0137 97.9247 40.8633 97.8445 40.6915C97.7715 40.5196 97.7341 40.3334 97.7325 40.1329L97.6488 29.9282H100.442L100.496 36.5451L106.009 30.3256C106.208 30.1251 106.444 29.9998 106.715 29.9496C106.994 29.8924 107.267 29.921 107.532 30.0356C107.798 30.143 108.007 30.3149 108.16 30.5512C108.319 30.7803 108.4 31.0346 108.402 31.3139L108.457 37.9523C109.054 37.3722 109.593 36.76 110.075 36.1155C110.556 35.4709 111.002 34.8085 111.412 34.1282C111.829 33.4407 112.217 32.7461 112.576 32.0443C112.943 31.3353 113.299 30.63 113.644 29.9282H116.77ZM137.436 40.1329C137.437 40.3334 137.403 40.5196 137.333 40.6915C137.263 40.8633 137.164 41.0137 137.036 41.1426C136.915 41.2644 136.769 41.361 136.598 41.4327C136.434 41.5043 136.255 41.5401 136.061 41.5401H129.745C129.401 41.5401 129.032 41.5007 128.638 41.4219C128.25 41.3431 127.866 41.2178 127.485 41.046C127.104 40.8669 126.733 40.6449 126.373 40.38C126.02 40.1078 125.709 39.782 125.441 39.4025C125.173 39.0157 124.955 38.5718 124.786 38.0705C124.624 37.5692 124.541 37.0034 124.536 36.3733L124.483 29.9282H127.276L127.329 36.3733C127.332 36.7385 127.395 37.0679 127.519 37.3615C127.651 37.648 127.824 37.895 128.041 38.1027C128.258 38.3104 128.51 38.4715 128.797 38.5861C129.091 38.6935 129.407 38.7472 129.744 38.7472H134.631L134.559 29.9282H137.352L137.436 40.1329ZM151.262 37.6193C151.266 38.0991 151.208 38.5324 151.09 38.9191C150.971 39.2986 150.813 39.6352 150.615 39.9288C150.416 40.2153 150.186 40.4623 149.922 40.67C149.659 40.8705 149.381 41.0352 149.089 41.1641C148.803 41.293 148.51 41.3897 148.21 41.4541C147.917 41.5114 147.638 41.5401 147.373 41.5401H139.81L139.788 38.7472H147.329C147.708 38.7472 147.994 38.6505 148.186 38.4572C148.377 38.2638 148.472 37.9845 148.469 37.6193C148.427 36.8745 148.048 36.5022 147.332 36.5022H143.002C142.387 36.5022 141.863 36.3947 141.431 36.1799C141 35.9651 140.647 35.6965 140.372 35.3743C140.105 35.052 139.908 34.7047 139.784 34.3323C139.666 33.9599 139.606 33.6126 139.603 33.2904C139.598 32.6673 139.705 32.1446 139.923 31.722C140.142 31.2924 140.418 30.9451 140.753 30.6801C141.087 30.4151 141.451 30.2254 141.844 30.1108C142.237 29.989 142.605 29.9282 142.949 29.9282H149.813L149.836 32.721H142.993C142.85 32.721 142.735 32.7389 142.65 32.7747C142.571 32.8034 142.511 32.8464 142.468 32.9036C142.433 32.9538 142.412 33.0111 142.405 33.0755C142.398 33.1328 142.395 33.1901 142.396 33.2474C142.404 33.362 142.426 33.4515 142.462 33.5159C142.499 33.5804 142.542 33.6269 142.592 33.6556C142.65 33.6842 142.711 33.7021 142.775 33.7093C142.847 33.7093 142.915 33.7093 142.98 33.7093H147.309C148.025 33.7093 148.635 33.8382 149.138 34.096C149.641 34.3538 150.049 34.6796 150.36 35.0735C150.671 35.4602 150.897 35.8827 151.036 36.341C151.183 36.7994 151.258 37.2254 151.262 37.6193ZM173.015 37.6193C173.019 38.0991 172.961 38.5324 172.843 38.9191C172.724 39.2986 172.566 39.6352 172.368 39.9288C172.169 40.2153 171.939 40.4623 171.675 40.67C171.412 40.8705 171.134 41.0352 170.842 41.1641C170.556 41.293 170.263 41.3897 169.963 41.4541C169.67 41.5114 169.391 41.5401 169.126 41.5401H164.088C163.701 41.5401 163.278 41.472 162.819 41.336C162.359 41.1999 161.931 40.9779 161.535 40.67C161.145 40.3549 160.816 39.9503 160.547 39.4562C160.285 38.9549 160.151 38.3426 160.145 37.6193L160.114 33.8382C160.109 33.1221 160.232 32.5169 160.486 32.0228C160.747 31.5215 161.07 31.1169 161.454 30.809C161.845 30.4939 162.269 30.2683 162.727 30.1323C163.184 29.9962 163.606 29.9282 163.993 29.9282H169.031C169.747 29.9282 170.357 30.0571 170.86 30.3149C171.363 30.5727 171.771 30.8985 172.082 31.2924C172.393 31.6791 172.618 32.1016 172.758 32.5599C172.905 33.0182 172.98 33.4443 172.984 33.8382L173.015 37.6193ZM170.191 33.8597C170.188 33.473 170.089 33.1865 169.894 33.0003C169.699 32.8141 169.419 32.721 169.054 32.721H164.037C163.665 32.721 163.382 32.8177 163.191 33.0111C162.999 33.1973 162.904 33.473 162.907 33.8382L162.938 37.6193C162.941 37.9845 163.04 38.2638 163.235 38.4572C163.43 38.6505 163.714 38.7472 164.086 38.7472H169.103C169.483 38.7472 169.765 38.6505 169.949 38.4572C170.134 38.2638 170.225 37.9845 170.222 37.6193L170.191 33.8597ZM188.301 41.5401H185.508L185.455 35.095C185.452 34.7298 185.385 34.4039 185.253 34.1175C185.129 33.8239 184.959 33.5732 184.742 33.3655C184.526 33.1579 184.27 33.0003 183.976 32.8929C183.688 32.7783 183.376 32.721 183.04 32.721H178.152L178.224 41.5401H175.432L175.348 31.3139C175.346 31.1205 175.38 30.9415 175.451 30.7768C175.521 30.6049 175.62 30.4581 175.748 30.3364C175.876 30.2075 176.025 30.1072 176.197 30.0356C176.368 29.964 176.55 29.9282 176.743 29.9282H183.038C183.389 29.9282 183.758 29.9676 184.146 30.0463C184.54 30.1251 184.928 30.254 185.309 30.433C185.697 30.6049 186.064 30.8269 186.41 31.099C186.763 31.364 187.074 31.6898 187.342 32.0765C187.617 32.4561 187.836 32.8965 187.998 33.3978C188.159 33.8991 188.243 34.4648 188.248 35.095L188.301 41.5401ZM205.063 31.6361L209.723 26.1363H213.537L206.972 33.8597L213.62 41.5401H209.828L205.1 36.0832L200.482 41.5401H196.68L203.191 33.8597L196.532 26.1363H200.313L205.063 31.6361Z" fill="url(#paint1_linear_61_1516)"/>
<defs>
<linearGradient id="paint0_linear_61_1516" x1="0.5" y1="0" x2="254.5" y2="62" gradientUnits="userSpaceOnUse">
<stop stop-color="#FFFD40"/>
<stop offset="1" stop-color="#FFFFC8"/>
</linearGradient>
<linearGradient id="paint1_linear_61_1516" x1="125.064" y1="19.5408" x2="125.064" y2="47.5399" gradientUnits="userSpaceOnUse">
<stop stop-color="#000119"/>
<stop offset="1" stop-color="#36426C"/>
</linearGradient>
</defs>
</svg>
